<svg xmlns="http://www.w3.org/2000/svg" viewBox="0 0 900 1000" width="900" height="1000">
<defs>
<filter id="parchment-texture">
<feTurbulence type="fractalNoise" baseFrequency="0.04" numOctaves="3" result="noise"/>
<feColorMatrix type="matrix" values="0 0 0 0 0.95  0 0 0 0 0.93  0 0 0 0 0.89  0 0 0 0.04 0" in="noise" result="tint"/>
<feBlend in="SourceGraphic" in2="tint" mode="multiply"/>
</filter>
</defs>
<rect x="0" y="0" width="900" height="1000" fill="#F8F5F0"/>
<polygon points="-45,1050 -45,782.5 12.8,749 20.6,739.8 45.8,719.6 57.2,701.4 83.4,683.7 94.6,665.8 136.9,626.7 156.8,601 162.8,588 176.6,572.3 230.4,490.9 277.5,396.2 288,381.4 305.6,329.5 305.6,317.4 313.3,313.8 358.7,187.8 396.1,23.2 399.3,17.5 402.7,-8.8 405.5,-16.6 404.5,-25.3 411.1,-50 945,-50 945,1050" fill="#F1EDE4" stroke="none"/>
<polygon points="764.5,490.9 779.9,498.3 780.8,511.5 775.4,528.6 761.9,624.5 769.8,649 771.8,665.7 756.4,732.9 758,745.9 744.6,758.7 738.5,761.8 733.3,761 732,754.1 738.3,732.8 737.1,725 726.4,725.3 698.8,751.6 683.4,749 678.3,738.3 676.1,708.7 671.4,684.8 675.4,663.3 670.9,638.7 683.4,608.1 679.3,587 679.5,579.5 694.9,555.4 705.7,532.2 718.1,511.5 735.1,496.6 764.5,490.9" fill="#C9D4D8" stroke="#9FB0B6" stroke-width="1" stroke-linejoin="round"/>
<polygon points="737.5,823.8 746.1,830.1 748.7,841.3 733.3,859.3 736.6,863.7 741.2,876.3 723.1,889.1 708.3,889.8 684,886 675.4,881.8 671,874.9 668.4,857.8 654.5,837.9 651.7,817.4 658,802.7 675.4,805.7 687,793.2 717.6,817.3 737.5,823.8" fill="#C9D4D8" stroke="#9FB0B6" stroke-width="1" stroke-linejoin="round"/>
<polyline points="687.9,749.8 689.9,740.1 704.5,705.3 706.7,691.9 707.4,651.7 710.9,606.6 719.7,563.9 746.5,508.6 763.2,499.1 764.5,490.9" fill="none" stroke="#9FB0B6" stroke-width="1.2" stroke-linecap="round" stroke-linejoin="round"/>
<polyline points="764.4,-50 768.2,-30.8 765,-24.2 764.7,-19.3 767,-15.1 771.8,-12.6 771.8,-9 767.9,-9 767.9,-4.6 771.1,0.7 772.7,15.9 776,23.2 772.7,26.7 771.8,23.2 767.9,31.6 764.5,27.5 767.9,43.6 760.1,43.6 760.1,47.6 765.4,47.4 776,60.1 776,63.7 770.9,65 765.4,72.1 764.5,76.1 771.8,79.8 771.8,84.1 764.5,87.8 767.9,91.8 760.1,96.2 763.6,97.4 764.5,100.2 760.1,100.2 760.1,103.9 764.3,109.3 756.4,111.9 758.9,118.4 765.3,126.5 767.9,136.3 764.5,136.3 764.5,132.3 760.1,132.3 760.1,136.3 763.3,142.1 762.8,159.7 767.9,168.5 765.4,175.4 765.2,186.5 767.3,197.7 771.8,204.6 766.9,207.6 764.5,213 771.8,213 762,250.2 764.5,261.6 757.2,266.3 757.2,269.5 760.1,273.3 750.8,287.6 750.4,294.5 756.4,301.8 746.9,308.7 743.9,318.8 744.8,345.9 751.1,359.7 753.5,378.9 756.8,385.4 756.4,390.1 746.4,395.6 744.8,400.3 758.6,447.4 752.6,454.7 752.6,459.1 764.5,490.9" fill="none" stroke="#9FB0B6" stroke-width="1.2" stroke-linecap="round" stroke-linejoin="round"/>
<polyline points="688.1,750.1 687.2,762.8 672.3,789.5 675.4,805.6" fill="none" stroke="#9FB0B6" stroke-width="1.2" stroke-linecap="round" stroke-linejoin="round"/>
<polygon points="-45,1050 -45,782.5 12.8,749 20.6,739.8 45.8,719.6 57.2,701.4 83.4,683.7 94.6,665.8 136.9,626.7 156.8,601 162.8,588 176.6,572.3 230.4,490.9 277.5,396.2 288,381.4 305.6,329.5 305.6,317.4 313.3,313.8 358.7,187.8 396.1,23.2 399.3,17.5 402.7,-8.8 405.5,-16.6 404.5,-25.3 411.1,-50 945,-50 945,1050" fill="none" stroke="#8B7D6B" stroke-width="1.5" stroke-linejoin="round"/>
<circle cx="585" cy="482" r="22" fill="rgba(196,181,163,0.12)" stroke="#C4B5A3" stroke-width="0.8" stroke-dasharray="3,2"/>
<text x="585" y="455" text-anchor="middle" font-family="Georgia, serif" font-style="italic" font-size="9" fill="#8B7A6D">Mt. of Olives</text>
<circle cx="506" cy="559" r="18" fill="rgba(196,181,163,0.12)" stroke="#C4B5A3" stroke-width="0.8" stroke-dasharray="3,2"/>
<text x="506" y="536" text-anchor="middle" font-family="Georgia, serif" font-style="italic" font-size="9" fill="#8B7A6D">Judean Hills</text>
<!-- Hand-drawn overlay: judea
  Features with no modern Natural Earth dataset:
  - Judean region boundary
  - Ancient roads connecting Jerusalem to Jericho, Bethlehem, Hebron
  - Approximate Dead Sea shoreline context
  All coordinates are in the viewBox space (900×1000).
-->
<g id="overlay-judea" fill="none" stroke="#A89680" stroke-width="1.5" stroke-dasharray="6,4" stroke-linecap="round" stroke-linejoin="round">
  <!-- Road: Jerusalem → Jericho -->
  <polyline points="460,300 520,330 580,360 620,380"/>
  <!-- Road: Jerusalem → Bethlehem → Hebron -->
  <polyline points="460,390 440,430 420,480 400,530 370,580"/>
  <!-- Road: coastal plain route -->
  <polyline points="120,200 140,300 160,400 180,500 200,600"/>
</g>
<!-- Region boundaries -->
<g fill="none" stroke="#C4B5A3" stroke-width="0.8" stroke-dasharray="2,4" stroke-linecap="round">
  <polyline points="200,200 260,220 320,240 380,260 440,280 500,300 560,310"/>
  <polyline points="180,500 240,510 300,520 360,530 420,540 480,550"/>
</g>
<text x="112" y="412" text-anchor="middle" font-family="Georgia, 'Times New Roman', serif" font-size="13" font-style="italic" font-weight="normal" letter-spacing="0.3em" fill="#6B7F8A">MEDITERRANEAN SEA</text>
<text x="731" y="647" text-anchor="middle" font-family="Georgia, 'Times New Roman', serif" font-size="13" font-style="italic" font-weight="normal" letter-spacing="0.3em" fill="#6B7F8A">DEAD SEA</text>
<text x="534" y="618" text-anchor="middle" font-family="Georgia, 'Times New Roman', serif" font-size="11" font-style="normal" font-weight="normal" letter-spacing="0.2em" fill="#8B7D6B">JUDEA</text>
<text x="563" y="206" text-anchor="middle" font-family="Georgia, 'Times New Roman', serif" font-size="11" font-style="normal" font-weight="normal" letter-spacing="0.2em" fill="#8B7D6B">SAMARIA</text>
<text x="450" y="853" text-anchor="middle" font-family="Georgia, 'Times New Roman', serif" font-size="11" font-style="normal" font-weight="normal" letter-spacing="0.2em" fill="#8B7D6B">IDUMEA</text>
<text x="759" y="412" text-anchor="middle" font-family="Georgia, 'Times New Roman', serif" font-size="9" font-style="italic" font-weight="normal" letter-spacing="0.1em" fill="#6B8B9A" transform="rotate(-70, 759, 412)">Jordan River</text>
<rect x="12" y="12" width="876" height="976" fill="none" stroke="#5C4E3D" stroke-width="2"/>
<rect x="16" y="16" width="868" height="968" fill="none" stroke="#5C4E3D" stroke-width="0.8"/>
<rect x="260" y="930" width="380" height="50" rx="4" fill="rgba(248,245,240,0.92)" stroke="#8B7D6B" stroke-width="1"/><text x="450" y="952" text-anchor="middle" font-family="Georgia, 'Times New Roman', serif" font-size="16" font-weight="bold" fill="#5C4E3D">Judea</text><text x="450" y="970" text-anchor="middle" font-family="Georgia, 'Times New Roman', serif" font-size="9" font-style="italic" fill="#B8A68E">in the time of Jesus · c. AD 30</text>
<circle cx="845" cy="55" r="30" fill="#F1EDE4" stroke="#8B7D6B" stroke-width="1"/><polygon points="845,29 840,55 850,55" fill="#8B7D6B"/><polygon points="845,81 840,55 850,55" fill="#B8A68E"/><text x="845" y="22" text-anchor="middle" font-family="Georgia, serif" font-size="8" font-weight="bold" fill="#8B7D6B">N</text>
</svg>