<svg xmlns="http://www.w3.org/2000/svg" viewBox="0 0 900 1000" width="900" height="1000">
<defs>
<filter id="parchment-texture">
<feTurbulence type="fractalNoise" baseFrequency="0.04" numOctaves="3" result="noise"/>
<feColorMatrix type="matrix" values="0 0 0 0 0.95  0 0 0 0 0.93  0 0 0 0 0.89  0 0 0 0.04 0" in="noise" result="tint"/>
<feBlend in="SourceGraphic" in2="tint" mode="multiply"/>
</filter>
</defs>
<rect x="0" y="0" width="900" height="1000" fill="#F8F5F0"/>
<polygon points="-45,1050 -45,691.3 -24.3,684.3 -13,683.1 -8.3,684.9 3.8,700 30,713.1 -0.7,700.6 -4.8,695.4 -1,695.3 -12.3,684.5 -16.6,683.5 -18.2,685.2 -20.2,684.3 -20.2,686 -22.3,685.2 -23.3,687.8 -20.2,687.8 -18.2,696.4 -23.8,691.9 -26.4,694.6 -21.2,694.6 -21.8,697.1 -18.2,698 -25.5,698.9 -23.3,700.6 -25.8,704 -21.2,705.8 -30.4,705.1 -30.6,711.1 -34.9,714.4 -26.9,715.2 -24.8,718.5 -17.1,722 -14,718.5 -14,722 -16.1,722.9 -14,722.9 -15.1,724.6 -11,723.7 -11.1,726.6 -2,721.2 1.4,723.7 5.6,722.9 5.5,731.2 2.4,734 7.6,732.3 10.5,736.6 6.6,739.2 12.6,739.4 12.6,741.8 15.9,743.3 19.8,741.8 16.1,740.9 14.7,738.3 22,740 20.8,738.3 23.9,738.3 23,736.7 24.9,735.7 27,736.6 27.5,734.4 35.1,736.9 42.5,732.9 39.3,728.8 43.5,728.8 44.3,723.3 40.6,717.8 42.5,716.8 32.1,715.2 31.1,713.1 49.7,716.1 51.7,719.8 58.5,721.7 76.4,736.6 90.3,742.4 114.3,739.8 139.1,730.6 125.9,737.3 100,743.5 107.3,743.5 105.1,745.2 115.5,744.3 133.9,737.4 137.6,739.6 141.1,738.3 137.1,737.4 139.1,736 145.3,739.2 146.3,741.8 144.2,741.8 151.5,743 153.5,740.8 151.4,739.2 158.6,737.4 159.7,733.1 154.5,737.4 143.2,736.6 147.7,736.3 154.5,729.7 168.9,725.5 164.8,727.1 173.7,735.3 167.9,736.6 171.7,740.3 170,744.3 183.2,742.5 179.2,740.8 189.4,737.4 195.6,740 195.5,737.5 197.6,737.4 191.6,736.6 208,735.7 206.6,733.4 211,732.8 211,730.6 224.9,734 247.2,735.3 278.2,729.6 307.1,721.4 333.4,709.2 366.5,683.2 391.4,654.3 406.8,631 425.6,589.9 441.3,534.4 442.2,523.2 445.6,519.8 454.1,521.7 460.1,516.6 464.9,487.3 472.1,482.5 474.3,477.9 476.2,478.7 480.7,471.9 481.4,468.2 478.3,465 483.8,461 490.7,442.8 502.4,435.8 509.1,418.8 521.6,399.5 522.5,390.9 520.6,387.2 535.8,386.3 542.1,375.9 546.1,375.1 544.1,369.5 547.2,360.1 544.1,349.9 547.2,347.2 549.8,336.1 553.3,334 555.8,335.4 562.6,326.3 571,323.1 573.6,320.7 570.8,316.9 585.5,315.3 598.3,305.9 598.1,297.4 580.1,259.5 582.2,256.9 581,252.6 585.1,247.3 583.2,236.4 594.4,225.3 587.3,214 589.3,209.8 587.9,197.8 572.8,186.4 565.6,187 566.7,182.4 560.5,179.8 561.5,177.2 558.5,178 566.7,173.4 565.7,166.5 570,164.8 576.1,156.6 575.4,151.3 569.8,143.8 580.6,143.5 596.5,124.9 596.3,122.7 592.3,114 576.2,94.4 569.8,89.8 568.3,85 586.3,72.7 587.8,69 598.5,65 606.8,57.8 628.4,49.5 632.4,42.8 628.4,24.8 614.3,12.9 603,9.2 597.8,10.6 570.8,28.1 552.6,29.4 547.2,30.8 542.1,35 541,32.5 535.9,37.4 536.9,39.4 539.2,37.3 542.5,38 543,36 545.1,37.6 545.1,34.2 547.2,33.3 549.7,36 556.4,35 543.4,39.9 541.3,44.1 554.3,36.7 548.7,40.6 543.5,49.7 533.6,51.6 523.5,48.3 521.8,50.2 529.7,52.2 516.8,50.5 501.9,57.4 447.3,34.9 435.1,35 436.1,32.5 415.6,23 403.9,23.3 383.2,29 362.3,42.1 341.5,51.6 326.7,65.8 311.6,73.3 311.7,83.9 300,87.1 293.9,98.3 291.2,98.3 292.7,95.3 289.6,88.7 280.7,85.6 271.6,91.6 273.7,92.5 269.8,96.2 261.5,98.3 255.8,102.3 253.3,107.9 247.1,100.9 232.8,109.1 229.6,108.6 231.7,106.9 218.7,105.2 208,107.9 199,106.2 196.3,108.5 181.9,109.5 173.5,107.9 163.2,114.6 141.1,112.1 120.6,121.6 114.1,121.3 77,112.1 54.8,102.8 43.1,94.4 41.4,89 28.8,80.2 26.2,74.7 15.3,64.2 3.9,57.1 -27.4,51.3 -39.5,44.7 -45,44.4 -45,-50 945,-50 945,1050 419.2,1050 416.8,1041.9 425.8,1021.4 426.3,1013.8 423.8,1012.5 428.4,1004.5 427.9,994.4 436.4,971.2 441.3,968.7 439.9,963.8 443.3,961.9 441.8,957.9 444.3,955 445.3,943.6 449.6,935.3 444.1,930.1 436.6,938.8 428.9,941 420.8,950.4 421.8,951.5 410.5,961.1 411.8,963.6 409.3,975.1 404.3,979.4 401.2,986.7 402.8,1001.4 396.1,1006.4 397.1,1017.1 393,1019.3 395,1028.7 393.7,1033 382.6,1050 183.2,1050 179.2,1040.6 184.2,1029.5 176.2,1020.4 174.9,1003 176.7,1001.3 171.7,996 161.8,991.9 159.2,987.3 143.6,974.7 132.8,969.6 130.2,962.8 125.9,960.5 122.6,955 122.6,948.2 111.2,943 110.3,939.5 109.3,943 107.3,943 108.6,932.6 106.8,927.4 102.1,925 103.6,908.3 97.3,900.7 90.7,897 93.8,894.2 93.8,890.7 85.8,883.9 87.8,880.9 84.2,878 86.7,877.1 85.8,873.6 83.6,877.9 85.8,882.2 83.1,879.7 77,879.8 71.6,883.5 70.9,889.8 76.4,891.6 59,908.2 54.6,914 50.7,925.9 58.1,934.3 67.7,939.1 87.2,953.9 94.9,969.6 98.8,986.2 98.9,988.9 93.7,994 93.8,1003.4 101,1009.8 102.1,1014.9 112.4,1024.4 121,1027.7 129.8,1050" fill="#F1EDE4" stroke="none"/>
<polygon points="146.8,739.8 145.4,739.2 147.4,738.8 148.4,740.8 146.8,739.8" fill="#F1EDE4" stroke="none"/>
<polygon points="206.4,726.3 221.4,732.3 190.4,722.9 206.4,726.3" fill="#F1EDE4" stroke="none"/>
<polygon points="161.8,721.6 165.7,720 189.4,722 165.4,721.7 140.2,731.5 161.8,721.6" fill="#F1EDE4" stroke="none"/>
<polygon points="381.6,165.2 388.9,163.5 385.9,169.6 320.7,198.1 308.9,209.5 295.7,209.8 288.5,215.2 285,229.4 307.6,245.9 314.9,254.4 301.8,251.5 293.6,252.3 279.4,257.8 270.6,253.4 264.1,252.5 252.1,254.2 247,258.5 244.9,268.4 240.8,272.3 231.7,273.1 227,276.8 215.8,279.7 212.3,280.2 210.1,278.3 209.9,281.8 189,287.4 163,288.1 151.5,296.9 151.4,300.3 154.5,303.9 141.1,303.9 141.7,300.8 137.1,292.9 125.2,291.1 106.1,294.3 68.9,284.8 62,280.8 56.9,268.9 49.4,264.2 45.9,249.8 41.4,244 43,237.9 55.9,244.8 67.5,242.6 83.1,227.7 97.6,226.5 111.8,227.7 124.3,231.4 129.8,230.4 139.4,220.9 140.4,207.9 138.1,200.3 160.5,205.2 214.1,208.9 249,205.1 267.6,197.9 275.2,198.8 305.4,191.1 319.7,186.1 327.2,180.7 347.9,176.7 381.6,165.2" fill="#F1EDE4" stroke="none"/>
<polygon points="545.9,518.8 545.1,531 539.9,535.3 536.6,535 527.6,522.4 528.6,518.5 538.7,512.8 544.5,514.7 545.9,518.8" fill="#C9D4D8" stroke="#9FB0B6" stroke-width="1" stroke-linejoin="round"/>
<polygon points="945,141.6 938.1,140.3 930.6,133.5 920.2,131.4 916.5,126.3 911.1,125.8 913.1,124 907.9,121.6 902.8,115.5 903.8,106.8 913.7,98 915.6,93.8 923.9,92.1 926.8,82.2 929.5,82.9 933.8,93.5 921.6,97.8 918.8,100.6 920.3,103.5 915,107.2 914.5,109.9 917.7,116 922.4,118.1 926.2,123.3 938.3,125.8 940.2,128.7 945,130" fill="#C9D4D8" stroke="#9FB0B6" stroke-width="1" stroke-linejoin="round"/>
<polygon points="533.9,654.3 537.9,655.9 538.2,658.7 533.2,682.7 535.8,691.5 532.2,708.5 527,711.9 525.2,710.2 526.6,704.1 523.7,704.1 516.3,709.7 512.2,709.2 509,685.7 512.2,679.2 511.2,673.1 521.5,658.7 526.1,655.5 533.9,654.3" fill="#C9D4D8" stroke="#9FB0B6" stroke-width="1" stroke-linejoin="round"/>
<polygon points="526.7,725.1 529.7,728.8 525.6,732.6 527.7,736.2 518.9,739.1 510.1,737.4 503.8,723.7 505.4,720.6 510.1,721.2 513.2,718.6 526.7,725.1" fill="#C9D4D8" stroke="#9FB0B6" stroke-width="1" stroke-linejoin="round"/>
<polygon points="84,852.6 80.6,849.6 80.6,846.3 73.8,841.8 68.7,844.9 49.7,836.3 44.5,831.7 45.9,825 57.9,822.2 67.1,831.7 68.9,838.5 84.6,843.7 86,848.5 84,852.6" fill="#C9D4D8" stroke="#9FB0B6" stroke-width="1" stroke-linejoin="round"/>
<polyline points="670.5,-50 670.5,-47.1 655.6,-44.5 653.1,-46.4 642.9,-43.5 637.6,-36.9 640,-34.5 638.6,-28.8 634.6,-21.5 630.3,-19.5 613.9,-22.3 608.4,-26.3 598.6,-27.6 591.2,-26.6 583.2,-22.3 577.1,-23.2 571.9,-17.1 572.8,-14.7 569.8,-14.7 576,-10.4 567.8,-6.5 570.8,-2.7 564.7,-4.1 563.6,-1.8 541.4,6 537.8,10.2 543,12 534.8,12 537.8,17.1 536.2,18.9 525.5,18.8 521.4,22.2 523.3,24.2 521.4,29.9 523.4,32.4 521.4,42.8 531.7,41.5 535.8,43.6 539,47.9 535.1,51.6" fill="none" stroke="#9FB0B6" stroke-width="1.2" stroke-linecap="round" stroke-linejoin="round"/>
<polyline points="84.2,852.4 80.7,844.7 64.6,838.7 53.9,822" fill="none" stroke="#9FB0B6" stroke-width="1.2" stroke-linecap="round" stroke-linejoin="round"/>
<polyline points="54,822 48.4,807.4 44.5,804.2 50.1,794.4 51.7,784.9 47.7,773.4 45.4,717.9 47.1,715.9" fill="none" stroke="#9FB0B6" stroke-width="1.2" stroke-linecap="round" stroke-linejoin="round"/>
<polyline points="84.2,852.3 86.7,873.6" fill="none" stroke="#9FB0B6" stroke-width="1.2" stroke-linecap="round" stroke-linejoin="round"/>
<polyline points="-45,709.8 -42.5,702.3 -28.4,697.2 -29.3,692.7 -23.3,684.3" fill="none" stroke="#9FB0B6" stroke-width="1.2" stroke-linecap="round" stroke-linejoin="round"/>
<polyline points="-45,809.7 -42.2,807.9 45.5,800.9" fill="none" stroke="#9FB0B6" stroke-width="1.2" stroke-linecap="round" stroke-linejoin="round"/>
<polyline points="539.8,512.5 539.1,529.2 536.6,535" fill="none" stroke="#9FB0B6" stroke-width="1.2" stroke-linecap="round" stroke-linejoin="round"/>
<polyline points="513.5,709.3 517.9,699.9 521.9,669.8 529.1,658.1 533.9,654.3" fill="none" stroke="#9FB0B6" stroke-width="1.2" stroke-linecap="round" stroke-linejoin="round"/>
<polyline points="579.6,425.5 572.5,430.9 570.5,436.1 557.5,443.2 549.7,451.4 539,477.3 537.6,500.5 539.8,512.5" fill="none" stroke="#9FB0B6" stroke-width="1.2" stroke-linecap="round" stroke-linejoin="round"/>
<polyline points="536.6,535 533.7,539.8 536.9,554.9 533.9,555.9 534.8,559.3 532.7,560.1 536.9,563.5 534.2,565.3 535.8,567.9 531.7,573.8 534.8,579 532.7,578.1 535.8,593.5 533.9,595.3 535.8,595.3 533.9,605.6 530.2,611.1 531.7,614.1 528.4,617.7 531.8,631.9 528.6,635.1 533.9,654.3" fill="none" stroke="#9FB0B6" stroke-width="1.2" stroke-linecap="round" stroke-linejoin="round"/>
<polyline points="513.5,709.4 509.3,717.8 510.1,721.2" fill="none" stroke="#9FB0B6" stroke-width="1.2" stroke-linecap="round" stroke-linejoin="round"/>
<polyline points="890.9,-50 877.9,-38 876.1,-33.5 880,-31.2 881.2,-26.7 877.9,-28.3 876.1,-25.4 881.5,-16.4 880.4,-8.2 888.4,-5.3 896.9,-6.3 894.6,0.1 901.2,5.4 902.8,12 906.1,14.9 903.1,16.1 903.9,20.5" fill="none" stroke="#9FB0B6" stroke-width="1.2" stroke-linecap="round" stroke-linejoin="round"/>
<polyline points="945,135.4 920.3,125 909.5,112.7 909.3,107.4 916.4,98.4 928.4,91.9 927.5,82.2" fill="none" stroke="#9FB0B6" stroke-width="1.2" stroke-linecap="round" stroke-linejoin="round"/>
<polyline points="903.9,20.5 904.9,27.3 906.9,32.5 910,32.5 910,36.3 914.7,40.1 931.6,44 943.9,59 940.1,61 938.4,67.1 930.5,70.1 927.5,82.2" fill="none" stroke="#9FB0B6" stroke-width="1.2" stroke-linecap="round" stroke-linejoin="round"/>
<polygon points="-45,1050 -45,691.3 -24.3,684.3 -13,683.1 -8.3,684.9 3.8,700 30,713.1 -0.7,700.6 -4.8,695.4 -1,695.3 -12.3,684.5 -16.6,683.5 -18.2,685.2 -20.2,684.3 -20.2,686 -22.3,685.2 -23.3,687.8 -20.2,687.8 -18.2,696.4 -23.8,691.9 -26.4,694.6 -21.2,694.6 -21.8,697.1 -18.2,698 -25.5,698.9 -23.3,700.6 -25.8,704 -21.2,705.8 -30.4,705.1 -30.6,711.1 -34.9,714.4 -26.9,715.2 -24.8,718.5 -17.1,722 -14,718.5 -14,722 -16.1,722.9 -14,722.9 -15.1,724.6 -11,723.7 -11.1,726.6 -2,721.2 1.4,723.7 5.6,722.9 5.5,731.2 2.4,734 7.6,732.3 10.5,736.6 6.6,739.2 12.6,739.4 12.6,741.8 15.9,743.3 19.8,741.8 16.1,740.9 14.7,738.3 22,740 20.8,738.3 23.9,738.3 23,736.7 24.9,735.7 27,736.6 27.5,734.4 35.1,736.9 42.5,732.9 39.3,728.8 43.5,728.8 44.3,723.3 40.6,717.8 42.5,716.8 32.1,715.2 31.1,713.1 49.7,716.1 51.7,719.8 58.5,721.7 76.4,736.6 90.3,742.4 114.3,739.8 139.1,730.6 125.9,737.3 100,743.5 107.3,743.5 105.1,745.2 115.5,744.3 133.9,737.4 137.6,739.6 141.1,738.3 137.1,737.4 139.1,736 145.3,739.2 146.3,741.8 144.2,741.8 151.5,743 153.5,740.8 151.4,739.2 158.6,737.4 159.7,733.1 154.5,737.4 143.2,736.6 147.7,736.3 154.5,729.7 168.9,725.5 164.8,727.1 173.7,735.3 167.9,736.6 171.7,740.3 170,744.3 183.2,742.5 179.2,740.8 189.4,737.4 195.6,740 195.5,737.5 197.6,737.4 191.6,736.6 208,735.7 206.6,733.4 211,732.8 211,730.6 224.9,734 247.2,735.3 278.2,729.6 307.1,721.4 333.4,709.2 366.5,683.2 391.4,654.3 406.8,631 425.6,589.9 441.3,534.4 442.2,523.2 445.6,519.8 454.1,521.7 460.1,516.6 464.9,487.3 472.1,482.5 474.3,477.9 476.2,478.7 480.7,471.9 481.4,468.2 478.3,465 483.8,461 490.7,442.8 502.4,435.8 509.1,418.8 521.6,399.5 522.5,390.9 520.6,387.2 535.8,386.3 542.1,375.9 546.1,375.1 544.1,369.5 547.2,360.1 544.1,349.9 547.2,347.2 549.8,336.1 553.3,334 555.8,335.4 562.6,326.3 571,323.1 573.6,320.7 570.8,316.9 585.5,315.3 598.3,305.9 598.1,297.4 580.1,259.5 582.2,256.9 581,252.6 585.1,247.3 583.2,236.4 594.4,225.3 587.3,214 589.3,209.8 587.9,197.8 572.8,186.4 565.6,187 566.7,182.4 560.5,179.8 561.5,177.2 558.5,178 566.7,173.4 565.7,166.5 570,164.8 576.1,156.6 575.4,151.3 569.8,143.8 580.6,143.5 596.5,124.9 596.3,122.7 592.3,114 576.2,94.4 569.8,89.8 568.3,85 586.3,72.7 587.8,69 598.5,65 606.8,57.8 628.4,49.5 632.4,42.8 628.4,24.8 614.3,12.9 603,9.2 597.8,10.6 570.8,28.1 552.6,29.4 547.2,30.8 542.1,35 541,32.5 535.9,37.4 536.9,39.4 539.2,37.3 542.5,38 543,36 545.1,37.6 545.1,34.2 547.2,33.3 549.7,36 556.4,35 543.4,39.9 541.3,44.1 554.3,36.7 548.7,40.6 543.5,49.7 533.6,51.6 523.5,48.3 521.8,50.2 529.7,52.2 516.8,50.5 501.9,57.4 447.3,34.9 435.1,35 436.1,32.5 415.6,23 403.9,23.3 383.2,29 362.3,42.1 341.5,51.6 326.7,65.8 311.6,73.3 311.7,83.9 300,87.1 293.9,98.3 291.2,98.3 292.7,95.3 289.6,88.7 280.7,85.6 271.6,91.6 273.7,92.5 269.8,96.2 261.5,98.3 255.8,102.3 253.3,107.9 247.1,100.9 232.8,109.1 229.6,108.6 231.7,106.9 218.7,105.2 208,107.9 199,106.2 196.3,108.5 181.9,109.5 173.5,107.9 163.2,114.6 141.1,112.1 120.6,121.6 114.1,121.3 77,112.1 54.8,102.8 43.1,94.4 41.4,89 28.8,80.2 26.2,74.7 15.3,64.2 3.9,57.1 -27.4,51.3 -39.5,44.7 -45,44.4 -45,-50 945,-50 945,1050 419.2,1050 416.8,1041.9 425.8,1021.4 426.3,1013.8 423.8,1012.5 428.4,1004.5 427.9,994.4 436.4,971.2 441.3,968.7 439.9,963.8 443.3,961.9 441.8,957.9 444.3,955 445.3,943.6 449.6,935.3 444.1,930.1 436.6,938.8 428.9,941 420.8,950.4 421.8,951.5 410.5,961.1 411.8,963.6 409.3,975.1 404.3,979.4 401.2,986.7 402.8,1001.4 396.1,1006.4 397.1,1017.1 393,1019.3 395,1028.7 393.7,1033 382.6,1050 183.2,1050 179.2,1040.6 184.2,1029.5 176.2,1020.4 174.9,1003 176.7,1001.3 171.7,996 161.8,991.9 159.2,987.3 143.6,974.7 132.8,969.6 130.2,962.8 125.9,960.5 122.6,955 122.6,948.2 111.2,943 110.3,939.5 109.3,943 107.3,943 108.6,932.6 106.8,927.4 102.1,925 103.6,908.3 97.3,900.7 90.7,897 93.8,894.2 93.8,890.7 85.8,883.9 87.8,880.9 84.2,878 86.7,877.1 85.8,873.6 83.6,877.9 85.8,882.2 83.1,879.7 77,879.8 71.6,883.5 70.9,889.8 76.4,891.6 59,908.2 54.6,914 50.7,925.9 58.1,934.3 67.7,939.1 87.2,953.9 94.9,969.6 98.8,986.2 98.9,988.9 93.7,994 93.8,1003.4 101,1009.8 102.1,1014.9 112.4,1024.4 121,1027.7 129.8,1050" fill="none" stroke="#8B7D6B" stroke-width="1.5" stroke-linejoin="round"/>
<polygon points="146.8,739.8 145.4,739.2 147.4,738.8 148.4,740.8 146.8,739.8" fill="none" stroke="#8B7D6B" stroke-width="1.5" stroke-linejoin="round"/>
<polygon points="206.4,726.3 221.4,732.3 190.4,722.9 206.4,726.3" fill="none" stroke="#8B7D6B" stroke-width="1.5" stroke-linejoin="round"/>
<polygon points="161.8,721.6 165.7,720 189.4,722 165.4,721.7 140.2,731.5 161.8,721.6" fill="none" stroke="#8B7D6B" stroke-width="1.5" stroke-linejoin="round"/>
<polygon points="381.6,165.2 388.9,163.5 385.9,169.6 320.7,198.1 308.9,209.5 295.7,209.8 288.5,215.2 285,229.4 307.6,245.9 314.9,254.4 301.8,251.5 293.6,252.3 279.4,257.8 270.6,253.4 264.1,252.5 252.1,254.2 247,258.5 244.9,268.4 240.8,272.3 231.7,273.1 227,276.8 215.8,279.7 212.3,280.2 210.1,278.3 209.9,281.8 189,287.4 163,288.1 151.5,296.9 151.4,300.3 154.5,303.9 141.1,303.9 141.7,300.8 137.1,292.9 125.2,291.1 106.1,294.3 68.9,284.8 62,280.8 56.9,268.9 49.4,264.2 45.9,249.8 41.4,244 43,237.9 55.9,244.8 67.5,242.6 83.1,227.7 97.6,226.5 111.8,227.7 124.3,231.4 129.8,230.4 139.4,220.9 140.4,207.9 138.1,200.3 160.5,205.2 214.1,208.9 249,205.1 267.6,197.9 275.2,198.8 305.4,191.1 319.7,186.1 327.2,180.7 347.9,176.7 381.6,165.2" fill="none" stroke="#8B7D6B" stroke-width="1.5" stroke-linejoin="round"/>
<circle cx="491" cy="600" r="25" fill="rgba(196,181,163,0.12)" stroke="#C4B5A3" stroke-width="0.8" stroke-dasharray="3,2"/>
<text x="491" y="570" text-anchor="middle" font-family="Georgia, serif" font-style="italic" font-size="9" fill="#8B7A6D">Mt. Gerizim</text>
<circle cx="492" cy="596" r="25" fill="rgba(196,181,163,0.12)" stroke="#C4B5A3" stroke-width="0.8" stroke-dasharray="3,2"/>
<text x="492" y="566" text-anchor="middle" font-family="Georgia, serif" font-style="italic" font-size="9" fill="#8B7A6D">Mt. Ebal</text>
<circle cx="486" cy="652" r="20" fill="rgba(196,181,163,0.12)" stroke="#C4B5A3" stroke-width="0.8" stroke-dasharray="3,2"/>
<text x="486" y="627" text-anchor="middle" font-family="Georgia, serif" font-style="italic" font-size="9" fill="#8B7A6D">Mt. of Olives</text>
<!-- Hand-drawn overlay: levant
  Features with no modern Natural Earth dataset:
  - Region boundaries (Galilee, Samaria, Judea, Idumea, Decapolis, Perea)
  - Via Maris route segment
  - Jordan River approximate course (natural course may differ from modern)
  All coordinates are in the viewBox space (900×1000).
-->
<g id="overlay-levant" fill="none" stroke="#A89680" stroke-width="1.5" stroke-dasharray="6,4" stroke-linecap="round" stroke-linejoin="round">
  <!-- Via Maris (coastal route) -->
  <polyline points="180,120 200,220 220,320 250,420 280,520 310,620"/>
  <!-- Trade road from coast to Damascus -->
  <polyline points="250,420 320,400 400,340 500,280 600,240"/>
</g>
<!-- Region boundaries (approximate) -->
<g fill="none" stroke="#C4B5A3" stroke-width="0.8" stroke-dasharray="2,4" stroke-linecap="round">
  <!-- Galilee / Samaria boundary -->
  <polyline points="320,240 380,240 430,250 480,270 540,260 600,240"/>
  <!-- Samaria / Judea boundary -->
  <polyline points="310,370 360,370 420,380 480,380 540,370 600,340"/>
  <!-- Judea / Idumea boundary -->
  <polyline points="300,520 350,520 410,530 470,540 530,520"/>
</g>
<text x="150" y="500" text-anchor="middle" font-family="Georgia, 'Times New Roman', serif" font-size="13" font-style="italic" font-weight="normal" letter-spacing="0.3em" fill="#6B7F8A">MEDITERRANEAN SEA</text>
<text x="503" y="531" text-anchor="middle" font-family="Georgia, 'Times New Roman', serif" font-size="11" font-style="normal" font-weight="normal" letter-spacing="0.2em" fill="#8B7D6B">GALILEE</text>
<text x="400" y="600" text-anchor="middle" font-family="Georgia, 'Times New Roman', serif" font-size="11" font-style="normal" font-weight="normal" letter-spacing="0.2em" fill="#8B7D6B">SAMARIA</text>
<text x="400" y="675" text-anchor="middle" font-family="Georgia, 'Times New Roman', serif" font-size="11" font-style="normal" font-weight="normal" letter-spacing="0.2em" fill="#8B7D6B">JUDEA</text>
<text x="450" y="737" text-anchor="middle" font-family="Georgia, 'Times New Roman', serif" font-size="11" font-style="normal" font-weight="normal" letter-spacing="0.2em" fill="#8B7D6B">IDUMEA</text>
<text x="585" y="590" text-anchor="middle" font-family="Georgia, 'Times New Roman', serif" font-size="11" font-style="normal" font-weight="normal" letter-spacing="0.2em" fill="#8B7D6B">DECAPOLIS</text>
<text x="555" y="638" text-anchor="middle" font-family="Georgia, 'Times New Roman', serif" font-size="11" font-style="normal" font-weight="normal" letter-spacing="0.2em" fill="#8B7D6B">PEREA</text>
<text x="540" y="813" text-anchor="middle" font-family="Georgia, 'Times New Roman', serif" font-size="11" font-style="normal" font-weight="normal" letter-spacing="0.2em" fill="#8B7D6B">NABATEA</text>
<text x="480" y="425" text-anchor="middle" font-family="Georgia, 'Times New Roman', serif" font-size="11" font-style="normal" font-weight="normal" letter-spacing="0.2em" fill="#8B7D6B">PHOENICIA</text>
<text x="578" y="450" text-anchor="middle" font-family="Georgia, 'Times New Roman', serif" font-size="11" font-style="normal" font-weight="normal" letter-spacing="0.2em" fill="#8B7D6B">ITUREA</text>
<rect x="12" y="12" width="876" height="976" fill="none" stroke="#5C4E3D" stroke-width="2"/>
<rect x="16" y="16" width="868" height="968" fill="none" stroke="#5C4E3D" stroke-width="0.8"/>
<rect x="260" y="930" width="380" height="50" rx="4" fill="rgba(248,245,240,0.92)" stroke="#8B7D6B" stroke-width="1"/><text x="450" y="952" text-anchor="middle" font-family="Georgia, 'Times New Roman', serif" font-size="16" font-weight="bold" fill="#5C4E3D">The Levant</text><text x="450" y="970" text-anchor="middle" font-family="Georgia, 'Times New Roman', serif" font-size="9" font-style="italic" fill="#B8A68E">in the time of Jesus · c. AD 30</text>
<circle cx="845" cy="55" r="30" fill="#F1EDE4" stroke="#8B7D6B" stroke-width="1"/><polygon points="845,29 840,55 850,55" fill="#8B7D6B"/><polygon points="845,81 840,55 850,55" fill="#B8A68E"/><text x="845" y="22" text-anchor="middle" font-family="Georgia, serif" font-size="8" font-weight="bold" fill="#8B7D6B">N</text>
</svg>